<svg width="252" height="33" viewBox="0 0 252 33" fill="none" xmlns="http://www.w3.org/2000/svg">
    <path d="M38.3726 23.3345C38.3726 20.7983 37.137 18.7824 34.6008 17.1567C34.4708 17.0916 34.2757 16.9616 34.1456 16.8965C34.2107 16.8965 34.2757 16.8965 34.2757 16.8965C36.4217 16.7665 38.4376 16.3113 40.2584 15.5309C42.2093 14.6855 43.64 13.58 44.5504 12.2144C45.1357 11.304 45.4608 10.2635 45.4608 9.15796C45.4608 7.077 44.5504 5.25616 42.7946 3.63041C44.2253 2.5249 45.786 1.61449 47.4768 1.09425C47.7369 1.02922 48.3872 0.89916 48.8424 0.83413V0.443946C48.3872 0.443946 47.7369 0.508984 47.2817 0.574014C45.3308 0.964194 43.5099 1.87461 42.0143 2.78503C40.0634 1.35437 37.3321 0.508976 33.8205 0.443946C29.9187 0.313886 26.277 0.964188 22.3752 2.26479C18.6034 3.50036 15.1569 5.45126 12.2305 7.72731C10.2796 9.15797 2.54104 15.8561 3.71158 22.3591C3.9717 23.5296 4.68702 24.9603 7.0281 25.4805C11.06 26.3259 16.7176 24.8302 21.2697 22.294C19.839 23.6597 18.6034 24.7652 17.4329 25.6106C14.6366 27.7566 11.9054 29.1222 9.23913 29.6424C8.19865 29.8375 7.35326 29.7725 6.44284 29.6424C6.18272 29.5774 5.98762 29.5774 5.59744 29.5124C4.49193 29.3173 3.58152 29.2522 2.73613 29.3173C0.980317 29.4473 0.0698992 29.9025 0.00486921 30.6829C-0.0601608 31.1381 0.525101 31.3982 1.8257 31.3982C2.93121 31.3982 4.29685 31.2031 5.85757 30.878C6.11769 30.813 6.31277 30.813 6.57289 30.7479C7.6784 30.943 8.5238 31.1381 9.10907 31.2682C13.206 32.1786 17.1078 32.6338 20.7494 32.5688C24.5862 32.5037 27.9678 31.9835 30.8941 30.943C34.1456 29.8375 36.3566 28.2118 37.5272 26.1308C38.1124 25.2854 38.3726 24.31 38.3726 23.3345ZM42.2744 4.08563C42.9897 4.93102 43.3149 5.97149 43.3149 7.20706C43.3149 8.63772 42.7946 10.0684 41.6891 11.5641C40.1934 13.7101 38.3075 15.2058 36.0965 15.9211C35.5112 16.1162 34.6008 16.3113 34.0806 16.3763C33.7554 16.4413 33.4953 16.4413 33.1702 16.4413C32.5199 16.1812 31.9346 16.0511 31.4144 15.9861C31.8696 15.4659 32.2598 14.9456 32.2598 14.9456C33.6254 13.2549 34.991 11.6291 36.3566 9.93833C38.5026 7.53222 40.4535 5.58132 42.2744 4.08563ZM6.70295 24.8302C4.4269 23.9848 3.77661 21.7088 4.88212 18.7824C6.24775 15.5309 9.62931 12.2794 13.9863 8.83281C20.4893 3.76047 27.1874 1.15928 33.8855 1.28934C37.202 1.28934 39.6732 2.13472 41.429 3.30526C39.5431 4.54083 37.9824 5.9715 37.137 6.68683C34.6008 8.76779 31.7395 11.5641 28.488 15.0107C20.4893 23.0744 10.4747 26.0658 6.70295 24.8302ZM34.2757 25.5455C33.0401 27.4314 31.2193 28.9271 28.9432 30.0976C26.5371 31.2682 23.9359 31.9185 21.0746 31.9185C17.1078 31.9185 13.206 31.5283 9.36919 30.7479C8.84895 30.6179 8.39373 30.5528 8.06859 30.4878C15.6771 29.7075 23.1556 25.3504 30.3089 17.4168C30.3739 17.3517 30.634 17.0266 30.9592 16.6364C32.5199 16.6364 33.4303 17.2217 33.4303 17.2217C34.7959 18.0021 35.5113 19.3677 35.5113 21.3836C35.5763 22.8143 35.1211 24.2449 34.2757 25.5455Z"
          fill="black"/>
    <path d="M131.301 15.7266C133.251 15.3364 134.812 14.2959 136.048 12.7352C137.283 11.1745 137.869 9.41866 137.804 7.46776C137.739 5.45183 136.893 3.82607 135.332 2.5905C133.967 1.48499 132.146 0.769665 129.935 0.509545C129.025 0.379485 128.114 0.314453 127.074 0.314453C119.855 0.314453 113.157 2.5905 106.914 7.20763C103.143 10.0039 100.216 13.2554 98.2003 16.9621C96.3795 20.2787 95.6642 23.4001 95.8592 26.1964C96.2494 30.6184 99.2408 32.7644 104.833 32.6994C107.89 32.6344 111.401 31.724 115.238 29.9031C119.075 28.0823 122.522 25.8712 125.448 23.205C127.854 20.994 129.805 18.5229 131.301 15.7266ZM97.1598 26.0663C97.1598 23.7903 98.2654 21.059 100.411 17.9376C102.622 14.8161 105.419 11.9548 108.995 9.28859C112.507 6.62236 116.019 4.5414 119.53 3.11074C122.847 1.74512 125.838 1.02979 128.439 1.02979C130.65 1.02979 132.471 1.55003 133.902 2.52548C135.528 3.63099 136.438 5.32177 136.503 7.46776C136.568 9.15854 136.178 10.7193 135.267 12.1499C134.357 13.6456 133.121 14.6861 131.561 15.2714C132.796 13.0603 133.382 11.1745 133.382 9.67878C133.382 8.57327 133.056 7.59781 132.341 6.88248C131.626 6.16715 130.78 5.71194 129.74 5.58188C129.285 5.51685 128.764 5.51686 128.244 5.51686C125.968 5.51686 123.432 6.03709 120.636 7.01254C117.709 8.05302 114.978 9.54872 112.442 11.3696C108.02 14.6211 104.768 18.5229 102.752 23.075C102.102 24.5056 101.842 25.8712 101.842 27.2369C101.842 29.9681 103.078 31.5289 105.484 32.0491C99.8911 32.3742 97.1598 30.4233 97.1598 26.0663ZM107.239 31.7239C104.118 31.7239 102.557 30.3583 102.557 27.6921C102.557 26.3915 102.948 25.0259 103.663 23.5952C105.289 20.2787 108.67 16.637 113.677 12.8002C119.53 8.31314 124.603 6.03709 128.699 6.03709C131.301 6.03709 132.666 7.07757 132.666 9.22356C132.666 10.9143 131.561 13.1904 129.415 16.0517C127.919 18.0026 126.163 19.9535 124.212 21.7744C118.295 27.3669 112.637 30.6835 107.239 31.7239Z"
          fill="black"/>
    <path d="M241.721 14.426C241.396 14.7512 241.266 15.0763 241.266 15.5315C241.266 15.9217 241.396 16.3119 241.721 16.637C242.046 16.9622 242.371 17.0923 242.826 17.0923C243.217 17.0923 243.607 16.9622 243.932 16.637C244.257 16.3119 244.387 15.9868 244.387 15.5315C244.387 15.1414 244.257 14.7512 243.932 14.426C243.607 14.1009 243.282 13.9708 242.826 13.9708C242.371 13.9708 241.981 14.1659 241.721 14.426Z"
          fill="black"/>
    <path d="M249.979 19.0429C248.678 19.0429 247.182 19.4331 245.426 20.2785C243.541 21.1889 241.785 22.4895 240.159 24.0502C239.053 25.1557 238.273 26.1962 237.753 27.2367C236.387 28.4072 235.347 29.2526 234.501 29.9029C232.16 31.5937 230.73 32.309 230.144 32.0489C230.014 31.9839 229.949 31.8538 229.949 31.6587C229.949 31.1385 230.535 30.163 231.77 28.7324C234.046 26.0661 237.168 22.9447 241.134 19.368C239.704 19.238 238.598 19.3681 237.883 19.8233C236.127 20.7987 233.786 22.7496 230.925 25.806C229.104 27.6919 227.673 28.8624 226.698 29.6428C224.357 31.4636 222.926 32.1789 222.406 31.9188C222.276 31.8538 222.211 31.7238 222.211 31.5287C222.211 31.1385 222.796 30.163 224.032 28.7324C226.243 26.1312 229.234 23.0097 232.941 19.368C236.127 16.3116 239.379 13.3853 242.76 10.7191C244.061 9.67858 245.231 9.02828 246.272 8.76816L246.337 8.70312C244.906 8.70312 243.671 8.83319 242.76 9.09331C242.045 9.2884 241.199 9.67858 240.224 10.3289C238.273 11.6295 235.867 13.5804 232.941 16.2466C230.73 18.2625 228.974 20.0183 227.673 21.384L227.608 21.3189C227.933 20.9288 228.063 20.5386 228.063 20.1484C228.063 19.4331 227.543 19.1079 226.503 19.1079C225.137 19.1079 223.446 19.6282 221.43 20.6036C219.219 21.7091 217.398 23.0748 215.838 24.7005C215.057 25.4809 214.407 26.3262 213.952 27.0416C212.846 28.017 211.806 28.8624 210.895 29.5778C208.684 31.3336 207.319 32.0489 206.799 31.7888C206.669 31.7237 206.603 31.5937 206.603 31.3986C206.603 31.0084 207.254 30.033 208.554 28.4722C210.83 25.676 213.887 22.6196 217.594 19.173C216.358 19.0429 215.318 19.238 214.472 19.6932C212.781 20.6036 210.505 22.5545 207.709 25.5459C206.148 27.1716 204.718 28.5373 203.482 29.5127C201.596 31.0084 200.296 31.7237 199.515 31.7237C199.19 31.7237 198.995 31.5937 198.995 31.3336C198.995 30.8783 199.58 29.9029 200.816 28.4722C202.962 25.871 206.148 22.8797 210.31 19.4331C208.619 19.4331 207.449 19.6282 206.734 20.0834C204.588 21.3189 202.442 23.0748 200.296 25.2207C200.231 25.2207 200.231 25.2858 200.166 25.2858C198.085 27.3667 196.394 28.8624 195.028 29.9029C193.337 31.1385 192.102 31.7888 191.256 31.7888C190.736 31.7888 190.476 31.5937 190.476 31.1385C190.476 30.163 192.557 27.5618 196.719 23.2698C197.629 22.3594 198.41 21.514 199.125 20.7987C200.166 20.7337 201.856 20.6686 203.287 20.6686L203.417 20.1484H199.775C202.246 17.7423 204.523 15.7264 206.734 14.1006C208.099 13.0601 209.27 12.4749 210.31 12.2798V12.1497C208.945 12.0847 207.839 12.1497 206.929 12.4098C206.278 12.6049 205.498 12.9951 204.392 13.5804C202.312 14.8159 199.645 17.027 196.394 20.2785C194.833 20.2785 193.402 20.4735 192.817 20.5386V21.0588C193.923 20.9288 195.158 20.9288 195.809 20.8637C193.467 23.2698 191.972 24.7655 191.452 25.4809C189.371 27.887 188.33 29.6428 188.33 30.8784C188.33 32.1139 188.98 32.6992 190.346 32.6992C191.582 32.6992 193.207 31.9839 195.158 30.6182C195.809 30.163 196.654 29.4477 197.564 28.6673C197.044 29.5777 196.784 30.3581 196.784 31.0734C196.784 32.179 197.369 32.7642 198.605 32.7642C199.775 32.7642 201.531 31.9188 203.807 30.098C204.392 29.6428 204.913 29.1876 205.368 28.7324C204.848 29.6428 204.588 30.4882 204.588 31.1385C204.588 32.244 205.238 32.7642 206.473 32.8293C207.579 32.8293 209.205 31.9839 211.481 30.163C212.066 29.7078 212.651 29.2526 213.237 28.7324C212.911 29.5127 212.781 30.228 212.781 30.9434C212.781 32.1789 213.367 32.7642 214.472 32.8293C215.838 32.8293 217.984 31.5287 221.04 28.7974C220.455 29.7078 220.13 30.4882 220.13 31.1385C220.13 32.244 220.715 32.7642 221.951 32.7642C223.056 32.7642 224.812 31.8538 227.023 30.098C227.608 29.6428 228.193 29.1226 228.779 28.6023C228.324 29.4477 228.063 30.2281 228.063 31.0084C228.063 32.1789 228.714 32.8293 230.079 32.8293C231.12 32.8293 232.746 32.0489 234.892 30.4882C235.672 29.9029 236.452 29.3176 237.233 28.6673C237.038 29.2526 236.973 29.7728 236.973 30.3581C236.973 32.0489 237.688 32.8943 239.184 32.8943C241.395 32.8943 244.321 31.0084 248.028 27.2367C250.629 24.5704 251.994 22.4245 251.994 20.7337C252.059 19.4981 251.344 19.0429 249.979 19.0429ZM217.919 30.4231C216.163 31.6587 215.122 32.1789 214.667 31.9839C214.472 31.9188 214.407 31.7237 214.407 31.4636C214.407 30.4231 215.773 28.5373 218.569 25.9361C222.926 21.7742 225.722 19.6932 227.023 19.6932C227.413 19.6932 227.543 19.8233 227.543 20.0834C227.543 20.7987 226.113 22.6846 223.316 25.6109C221.43 27.6269 219.61 29.1876 217.919 30.4231ZM247.442 25.676C243.215 29.9679 240.484 32.0489 239.249 32.0489C238.793 32.0489 238.533 31.7888 238.533 31.3336C238.533 30.3581 239.834 28.6023 242.37 25.9361C246.402 21.7742 249.198 19.6932 250.694 19.6932C251.084 19.6932 251.279 19.8883 251.279 20.2134C251.279 21.2539 249.978 23.0748 247.442 25.676Z"
          fill="black"/>
    <path d="M158.222 12.41C157.571 12.6051 156.791 12.9953 155.686 13.5806C153.605 14.8162 150.938 17.0272 147.687 20.2787C146.126 20.2787 144.696 20.4738 144.11 20.5388V21.059C145.216 20.929 146.451 20.929 147.102 20.8639C144.761 23.27 143.265 24.7657 142.745 25.4811C142.615 25.6762 142.485 25.8062 142.289 26.0013C140.664 27.432 139.298 28.6676 138.062 29.578C135.851 31.3338 134.356 32.0491 133.836 31.789C133.705 31.724 133.64 31.5939 133.64 31.3988C133.64 31.0086 134.291 30.0332 135.591 28.4725C137.867 25.6762 140.924 22.6198 144.63 19.1732C143.395 19.0431 142.354 19.2382 141.509 19.6934C139.818 20.6038 137.542 22.5547 134.746 25.5461C133.185 27.1719 131.755 28.5375 130.519 29.5129C128.633 31.0086 127.333 31.724 126.552 31.724C126.227 31.724 126.032 31.5939 126.032 31.3338C126.032 30.8786 126.617 29.9031 127.853 28.4725C129.999 25.8713 133.185 22.8799 137.347 19.4333C135.656 19.4333 134.486 19.6284 133.77 20.0836C131.559 21.3842 129.283 23.205 127.007 25.5461C124.861 27.7571 123.756 29.578 123.756 31.0086C123.756 32.1141 124.341 32.6994 125.577 32.6994C126.747 32.6994 128.503 31.854 130.779 30.0332C131.364 29.578 131.885 29.1227 132.34 28.6675C131.82 29.578 131.559 30.4234 131.559 31.0737C131.559 32.1792 132.21 32.6994 133.445 32.7644C134.551 32.7644 136.307 31.919 138.583 30.0982C139.233 29.578 139.818 29.0577 140.534 28.4725C139.948 29.4479 139.623 30.2933 139.623 30.8786C139.623 32.1141 140.273 32.6994 141.639 32.6994C142.875 32.6994 144.5 31.9841 146.451 30.6184C147.882 29.578 150.288 27.3019 152.174 25.6111H151.199C149.248 27.497 147.622 28.9927 146.321 29.9681C144.63 31.2037 143.395 31.854 142.55 31.854C142.029 31.854 141.769 31.6589 141.769 31.2037C141.769 30.2283 143.85 27.6271 148.012 23.3351C148.922 22.4247 149.703 21.5793 150.418 20.8639C151.459 20.7989 153.149 20.7339 154.58 20.7339L154.71 20.2136H151.068C153.54 17.8075 155.816 15.7916 158.027 14.1659C159.392 13.1254 160.563 12.5401 161.603 12.345V12.215C160.238 12.0849 159.067 12.2149 158.222 12.41Z"
          fill="black"/>
    <path d="M90.4627 12.4096C89.8124 12.6047 89.032 12.9949 87.9265 13.5802C85.8456 14.8157 83.1793 17.0267 79.9278 20.2782C78.3671 20.2782 76.9365 20.4733 76.3512 20.5384V21.0586C77.4567 20.9286 78.6923 20.9285 79.3426 20.8635C77.0015 23.2696 75.5058 24.7653 74.9856 25.4806C74.8555 25.6757 74.7254 25.8058 74.5954 25.9359C71.9291 28.2119 69.393 29.9027 66.9218 31.0732C68.6777 29.9677 69.7832 28.5371 70.3034 26.8463C70.5635 26.0659 70.6936 24.7653 70.6936 23.0095C70.6936 21.904 70.8887 21.1887 71.3439 20.7335C72.6445 19.758 73.75 19.0427 74.7254 18.5875C76.4813 17.612 77.3266 16.8317 77.3266 16.2464C77.3266 15.9863 77.0015 15.8562 76.4162 15.8562C75.5058 15.8562 74.4653 16.3764 73.2948 17.3519C71.9942 18.7175 71.0838 19.758 70.4985 20.4733C69.7181 21.3838 67.8973 23.0095 65.166 25.4156C64.6458 25.4156 63.8004 25.6757 62.825 26.5211C62.1096 27.1064 61.5243 27.6266 61.0041 28.1469C60.679 28.472 60.4188 28.7972 60.1587 29.1223C59.9636 29.3174 59.7686 29.4475 59.5735 29.5775C57.6226 31.1383 56.2569 31.9186 55.4766 31.9186C55.1514 31.9186 55.0214 31.7886 55.0214 31.5284C55.0214 31.1383 55.6066 30.1628 56.8422 28.7321C58.9232 26.196 61.9796 23.2046 65.9464 19.6279C65.036 19.5629 64.1906 19.693 63.4102 19.9531C62.6299 20.2132 61.4593 21.0586 59.7685 22.4242C60.679 21.5138 61.1342 20.7985 61.1342 20.1482C61.1342 19.4329 60.6139 19.1077 59.5084 19.1077C58.1428 19.1077 56.452 19.6279 54.3711 20.6034C52.16 21.7089 50.3392 23.0745 48.8435 24.6353C48.0632 25.4156 47.4779 26.196 47.0227 26.9113C45.2018 28.472 43.9012 29.5125 43.2509 29.9677C41.4301 31.2683 40.1295 31.9186 39.4142 31.9186C39.089 31.9186 38.9589 31.7886 38.9589 31.5284C38.9589 30.488 41.1049 27.7567 45.4619 23.3347C50.9245 17.6771 55.6066 13.4501 59.3784 10.5888C60.809 9.48327 61.9796 8.83297 62.89 8.63788L62.955 8.57285C61.5243 8.50782 60.2888 8.63788 59.4434 8.898C58.533 9.15812 57.6225 9.61333 56.7772 10.1986C53.3306 12.5397 48.9736 16.3765 43.7712 21.7089C40.8448 24.7003 38.8939 26.9763 37.9835 28.5371C37.4633 29.3825 37.2031 30.1628 37.2031 30.8781C37.2031 32.1137 37.7884 32.699 39.024 32.699C39.9344 32.699 41.365 31.9836 43.446 30.618C44.2264 30.0978 45.1368 29.3825 46.1122 28.5371C45.7871 29.3174 45.592 30.0978 45.592 30.8781C45.592 32.0487 46.1773 32.634 47.2828 32.699C48.5834 32.764 50.7294 31.4634 53.7858 28.7972C53.2655 29.5775 53.0054 30.3579 53.0054 31.0082C53.0054 32.1137 53.5907 32.699 54.8263 32.699C55.8667 32.699 57.4275 31.9186 59.5084 30.3579C59.4434 30.553 59.4434 30.7481 59.4434 30.9432C59.3784 32.0487 60.0937 32.634 61.5244 32.764C63.2802 32.8941 65.166 32.5039 67.1169 31.6585C69.1329 30.8131 71.0187 29.6426 72.8396 28.2119C72.1242 29.3174 71.7341 30.2278 71.7341 30.9432C71.7341 32.1787 72.3844 32.764 73.75 32.764C74.9856 32.764 76.6113 32.0487 78.5622 30.683C79.9929 29.6426 82.399 27.3665 84.2849 25.6757H83.3094C81.3585 27.5616 79.7328 29.0573 78.4322 30.0327C76.7414 31.2683 75.5058 31.9186 74.6604 31.9186C74.1402 31.9186 73.8801 31.7235 73.8801 31.2683C73.8801 30.2929 75.961 27.6917 80.1229 23.3997C81.0333 22.4893 81.8137 21.6439 82.529 20.9285C83.5695 20.8635 85.2603 20.7985 86.691 20.7985L86.821 20.2782H83.1793C85.6505 17.8721 87.9265 15.8562 90.1376 14.2305C91.5032 13.19 92.6737 12.6047 93.7142 12.4096V12.2796C92.4786 12.0845 91.3081 12.2145 90.4627 12.4096ZM50.7294 30.488C49.0386 31.7235 47.9981 32.2438 47.5429 32.0487C47.3478 31.9837 47.2828 31.7886 47.2828 31.5935C47.2828 30.488 48.6484 28.6671 51.3797 26.0659C55.7367 21.904 58.598 19.823 60.0287 19.823C60.4188 19.823 60.5489 20.0181 60.5489 20.3433C60.5489 20.9286 59.0532 22.7494 56.0618 25.8058C54.241 27.6266 52.4202 29.1874 50.7294 30.488ZM61.1992 31.8536C60.4189 31.8536 60.0287 31.4634 60.0937 30.7481C60.0937 30.2278 60.4839 29.7076 61.1992 29.1874C62.2397 28.5371 63.02 28.0818 63.6053 27.7567C64.7108 27.0414 65.2961 26.3911 65.4262 25.8058C67.5722 24.05 69.1979 22.5543 70.2384 21.4488C69.5881 23.985 68.2224 26.4561 66.2715 28.7321C64.4507 30.8131 62.7599 31.8536 61.1992 31.8536Z"
          fill="black"/>
    <path d="M216.23 2.78594C215.514 1.29025 213.889 0.509888 211.417 0.509888C208.296 0.509888 205.175 1.74546 201.988 4.15157C198.802 6.55768 194.9 10.5245 190.348 16.3772C186.381 21.4495 182.869 25.2213 179.813 27.6274C176.366 30.3587 173.115 31.7893 170.123 31.7893C168.303 31.7893 166.807 31.3341 165.636 30.3587C164.466 29.3832 163.881 28.0176 163.881 26.1317C163.881 22.36 166.482 18.003 171.684 13.0607C177.017 8.05336 181.439 5.51721 185.08 5.51721C186.056 5.51721 186.901 5.7123 187.551 6.16751C188.397 6.75278 188.852 7.66318 188.852 8.89876C188.852 9.93923 188.592 10.9147 188.072 12.0202C186.966 14.4263 184.625 17.2226 181.114 20.4091C178.837 22.425 177.147 23.8557 175.911 24.7011C173.83 26.0667 171.944 26.782 170.253 26.847C169.343 26.847 168.563 26.5869 168.173 25.7415H167.782C168.108 26.717 168.953 27.3673 170.319 27.3673C174.025 27.3673 177.927 25.5464 181.959 21.8397C185.21 18.8483 187.551 15.7269 188.917 12.3454C189.307 11.3699 189.567 10.3294 189.567 9.35397C189.567 7.72822 188.982 6.55768 187.812 5.77732C186.966 5.19205 185.861 4.93192 184.365 4.93192C182.349 4.93192 180.138 5.45216 177.732 6.55767C175.066 7.72821 172.595 9.419 170.253 11.63C165.441 16.2472 163.035 20.9293 163.035 25.7415C163.035 28.0176 163.75 29.7734 165.116 30.8789C166.417 31.9194 168.173 32.5047 170.384 32.5047C173.83 32.5047 177.472 31.2691 181.309 28.7979C185.471 26.1317 189.502 22.2949 193.274 17.2876C198.086 10.9147 201.338 7.14295 203.029 5.38714C205.89 2.52582 208.556 1.09515 211.092 1.09515C212.848 1.09515 214.084 1.81048 214.799 3.30617C215.059 3.89144 215.319 4.21661 215.579 4.21661C215.905 4.21661 216.1 4.0215 216.165 3.69635C216.36 3.30617 216.36 3.04606 216.23 2.78594Z"
          fill="black"/>
</svg>
