<svg width="7" height="12" viewBox="0 0 7 12" fill="none" xmlns="http://www.w3.org/2000/svg">
    <path d="M2.21429 6.75V11.85C2.21429 11.9328 2.27825 12 2.35714 12H4.35714C4.43604 12 4.5 11.9328 4.5 11.85V6.75C4.5 6.66716 4.56396 6.6 4.64286 6.6H6.07143C6.15033 6.6 6.21429 6.53284 6.21429 6.45V4.65C6.21429 4.56716 6.15033 4.5 6.07143 4.5H4.64286C4.56396 4.5 4.5 4.43294 4.5 4.3501V3C4.5 2.4 5.21429 2.1 5.5 2.1H6.35714C6.43604 2.1 6.5 2.03284 6.5 1.95V0.15C6.5 0.0671573 6.43606 0 6.35716 0H4.5C3.12857 0 2.21429 1.5 2.21429 2.4V4.35C2.21429 4.43284 2.15033 4.5 2.07143 4.5H0.642857C0.563959 4.5 0.5 4.56716 0.5 4.65V6.45C0.5 6.53284 0.563959 6.6 0.642857 6.6H2.07143C2.15033 6.6 2.21429 6.66716 2.21429 6.75Z"
          fill="black"/>
</svg>
