<svg width="14" height="14" viewBox="0 0 14 14" fill="none" xmlns="http://www.w3.org/2000/svg">
    <path d="M13.7059 7.04902C13.7059 6.62327 13.6723 6.19522 13.6007 5.77637H7.85547V8.1882H11.1455C11.009 8.96606 10.448 9.74911 9.80562 10.1864L9.92797 11.6564L11.7558 11.6564C12.9084 10.5655 13.7059 8.95456 13.7059 7.04902Z"
          fill="black"/>
    <path d="M7.70626 13.1236C9.3536 13.1236 10.7428 12.5869 11.755 11.6603L9.80488 10.1836C9.25726 10.5534 8.53217 10.7249 7.7085 10.7249C6.11503 10.7249 4.68297 9.658 4.1982 8.22363H2.24805V9.78495C3.28493 11.8318 5.39684 13.1236 7.70626 13.1236Z"
          fill="black"/>
    <path d="M4.19802 8.2261C3.91861 7.48067 4.04049 6.52152 4.3199 5.77609L4.44179 4.30609L2.24786 4.18359C1.30179 5.87955 1.28005 8.00014 2.22612 9.6961L4.19802 8.2261Z"
          fill="black"/>
    <path d="M7.82384 3.27289C8.7134 3.25954 9.57315 3.58454 10.2174 4.18113L11.9988 2.45147C10.8708 1.42302 9.37369 0.8576 7.82384 0.875408C5.46467 0.875408 3.30726 2.13451 2.24805 4.1825L4.32063 5.775C4.81355 4.33918 6.19604 3.27289 7.82384 3.27289Z"
          fill="black"/>
</svg>
