<svg width="396" height="52" viewBox="0 0 396 52" fill="none" xmlns="http://www.w3.org/2000/svg">
    <path d="M60.2257 36.4445C60.2257 32.464 58.2864 29.3 54.3059 26.7484C54.1018 26.6463 53.7956 26.4422 53.5915 26.3401C53.6935 26.3401 53.7956 26.3401 53.7956 26.3401C57.1637 26.136 60.3277 25.4215 63.1855 24.1968C66.2474 22.8699 68.4929 21.1348 69.9218 18.9915C70.8403 17.5626 71.3507 15.9295 71.3507 14.1944C71.3507 10.9284 69.9218 8.07058 67.166 5.51897C69.4114 3.78388 71.861 2.35498 74.5147 1.53847C74.9229 1.4364 75.9436 1.23228 76.658 1.13022V0.517823C75.9436 0.517823 74.9229 0.6199 74.2085 0.721964C71.1465 1.33435 68.2887 2.76325 65.9413 4.19215C62.8793 1.94673 58.5926 0.619887 53.0811 0.517823C46.9573 0.313694 41.2417 1.33434 35.1178 3.37563C29.1981 5.31485 23.7886 8.37679 19.1957 11.949C16.1338 14.1945 3.98815 24.7071 5.82531 34.9135C6.23357 36.7507 7.35627 38.9961 11.0306 39.8126C17.3586 41.1395 26.2382 38.792 33.3827 34.8115C31.1373 36.9548 29.1981 38.6899 27.3609 40.0168C22.9721 43.3849 18.6854 45.5282 14.5008 46.3447C12.8678 46.6509 11.5409 46.5489 10.112 46.3447C9.70376 46.2427 9.39756 46.2427 8.78517 46.1406C7.05008 45.8344 5.62118 45.7323 4.29434 45.8344C1.53861 46.0385 0.109707 46.753 0.00764221 47.9778C-0.0944222 48.6922 0.824145 49.1005 2.86543 49.1005C4.60053 49.1005 6.74389 48.7943 9.19344 48.284C9.6017 48.1819 9.90788 48.1819 10.3161 48.0798C12.0512 48.386 13.3781 48.6922 14.2967 48.8963C20.7267 50.3252 26.8506 51.0397 32.5662 50.9376C38.588 50.8356 43.8953 50.0191 48.4882 48.386C53.5915 46.6509 57.0616 44.0993 58.8988 40.8333C59.8174 39.5064 60.2257 37.9755 60.2257 36.4445ZM66.3495 6.23344C67.4722 7.56027 67.9826 9.19329 67.9826 11.1325C67.9826 13.3779 67.166 15.6234 65.4309 17.9708C63.0835 21.339 60.1236 23.6865 56.6534 24.8092C55.7348 25.1154 54.3059 25.4215 53.4894 25.5236C52.9791 25.6257 52.5708 25.6257 52.0605 25.6257C51.0399 25.2174 50.1213 25.0133 49.3047 24.9112C50.0192 24.0947 50.6316 23.2782 50.6316 23.2782C52.775 20.6245 54.9183 18.0729 57.0616 15.4192C60.4298 11.6428 63.4917 8.58092 66.3495 6.23344ZM10.5203 38.792C6.94801 37.4651 5.92738 33.8929 7.66247 29.3C9.80583 24.1968 15.1132 19.0935 21.9515 13.6841C32.1579 5.7231 42.6706 1.64053 53.1832 1.84466C58.3885 1.84466 62.2669 3.17149 65.0227 5.00865C62.0628 6.94787 59.6133 9.1933 58.2864 10.316C54.3059 13.5821 49.8151 17.9708 44.7118 23.3802C32.1579 36.0362 16.44 40.7312 10.5203 38.792ZM53.7956 39.9147C51.8563 42.8746 48.9986 45.222 45.4263 47.0592C41.6499 48.8964 37.5673 49.917 33.0765 49.917C26.8506 49.917 20.7267 49.3046 14.7049 48.0798C13.8884 47.8757 13.1739 47.7737 12.6636 47.6716C24.6052 46.4468 36.3426 39.6085 47.5697 27.1566C47.6717 27.0546 48.08 26.5442 48.5903 25.9319C51.0399 25.9319 52.4687 26.8505 52.4687 26.8505C54.6121 28.0752 55.7348 30.2186 55.7348 33.3826C55.8369 35.628 55.1224 37.8734 53.7956 39.9147Z"
          fill="white"/>
    <path d="M206.076 24.5037C209.138 23.8913 211.588 22.2583 213.527 19.8087C215.466 17.3592 216.385 14.6035 216.283 11.5416C216.181 8.37756 214.854 5.82593 212.404 3.88671C210.261 2.15161 207.403 1.02891 203.933 0.620649C202.504 0.416521 201.075 0.314453 199.442 0.314453C188.113 0.314453 177.6 3.8867 167.802 11.1333C161.882 15.522 157.29 20.6253 154.126 26.4429C151.268 31.6482 150.145 36.5473 150.451 40.9361C151.064 47.8765 155.759 51.2446 164.536 51.1425C169.333 51.0405 174.845 49.6116 180.866 46.7538C186.888 43.896 192.298 40.4258 196.89 36.2411C200.667 32.7709 203.729 28.8925 206.076 24.5037ZM152.492 40.7319C152.492 37.1597 154.228 32.873 157.596 27.9739C161.066 23.0748 165.455 18.584 171.068 14.3993C176.58 10.2147 182.091 6.94864 187.603 4.70323C192.808 2.55987 197.503 1.43717 201.585 1.43717C205.056 1.43717 207.913 2.25369 210.159 3.78465C212.71 5.51975 214.139 8.17343 214.241 11.5416C214.344 14.1952 213.731 16.6448 212.302 18.8902C210.873 21.2377 208.934 22.8707 206.485 23.7893C208.424 20.3191 209.342 17.3592 209.342 15.0117C209.342 13.2766 208.832 11.7457 207.709 10.6229C206.587 9.50024 205.26 8.78579 203.627 8.58166C202.912 8.4796 202.096 8.47962 201.279 8.47962C197.707 8.47962 193.726 9.29612 189.338 10.8271C184.745 12.4601 180.458 14.8076 176.478 17.6654C169.537 22.7686 164.434 28.8925 161.27 36.037C160.249 38.2824 159.841 40.4258 159.841 42.5691C159.841 46.8558 161.78 49.3054 165.557 50.1219C156.779 50.6322 152.492 47.5703 152.492 40.7319ZM168.312 49.6116C163.413 49.6116 160.964 47.4682 160.964 43.2836C160.964 41.2423 161.576 39.0989 162.699 36.8535C165.251 31.6482 170.558 25.9326 178.417 19.9108C187.603 12.8684 195.564 9.29612 201.994 9.29612C206.076 9.29612 208.22 10.9291 208.22 14.2973C208.22 16.9509 206.485 20.5232 203.116 25.014C200.769 28.076 198.013 31.1379 194.951 33.9957C185.663 42.7733 176.784 47.9785 168.312 49.6116Z"
          fill="white"/>
    <path d="M379.38 22.4625C378.87 22.9728 378.666 23.4831 378.666 24.1976C378.666 24.81 378.87 25.4223 379.38 25.9327C379.891 26.443 380.401 26.6471 381.116 26.6471C381.728 26.6471 382.34 26.443 382.851 25.9327C383.361 25.4223 383.565 24.912 383.565 24.1976C383.565 23.5852 383.361 22.9728 382.851 22.4625C382.34 21.9522 381.83 21.748 381.116 21.748C380.401 21.748 379.789 22.0542 379.38 22.4625Z"
          fill="white"/>
    <path d="M392.343 29.7087C390.302 29.7087 387.954 30.3211 385.198 31.6479C382.239 33.0768 379.483 35.1181 376.931 37.5677C375.196 39.3028 373.971 40.9358 373.155 42.5688C371.012 44.406 369.379 45.7328 368.052 46.7535C364.377 49.4072 362.132 50.5298 361.213 50.1216C361.009 50.0195 360.907 49.8154 360.907 49.5092C360.907 48.6927 361.826 47.1617 363.765 44.9163C367.337 40.7317 372.236 35.8326 378.462 30.219C376.217 30.0149 374.482 30.219 373.359 30.9335C370.603 32.4645 366.929 35.5264 362.438 40.3234C359.58 43.2833 357.335 45.1204 355.804 46.3452C352.13 49.203 349.884 50.3257 349.068 49.9174C348.864 49.8154 348.761 49.6113 348.761 49.3051C348.761 48.6927 349.68 47.1617 351.619 44.9163C355.089 40.8337 359.784 35.9346 365.602 30.219C370.603 25.422 375.707 20.8291 381.014 16.6445C383.055 15.0114 384.892 13.9908 386.525 13.5825L386.627 13.4805C384.382 13.4805 382.443 13.6846 381.014 14.0929C379.891 14.3991 378.564 15.0114 377.033 16.0321C373.971 18.0734 370.195 21.1353 365.602 25.3199C362.132 28.4839 359.376 31.2397 357.335 33.383L357.233 33.281C357.743 32.6686 357.947 32.0562 357.947 31.4438C357.947 30.3211 357.131 29.8108 355.498 29.8108C353.354 29.8108 350.701 30.6273 347.537 32.1582C344.066 33.8933 341.209 36.0367 338.759 38.5883C337.534 39.8131 336.514 41.1399 335.799 42.2626C334.064 43.7936 332.431 45.1204 331.002 46.2432C327.532 48.9989 325.389 50.1216 324.572 49.7133C324.368 49.6113 324.266 49.4071 324.266 49.1009C324.266 48.4886 325.287 46.9576 327.328 44.508C330.9 40.1193 335.697 35.3223 341.515 29.9128C339.576 29.7087 337.943 30.0149 336.616 30.7293C333.962 32.1583 330.39 35.2202 326.001 39.9151C323.552 42.4668 321.306 44.6101 319.367 46.1411C316.407 48.4886 314.366 49.6113 313.141 49.6113C312.631 49.6113 312.324 49.4071 312.324 48.9989C312.324 48.2844 313.243 46.7535 315.182 44.508C318.55 40.4255 323.552 35.7305 330.084 30.3211C327.43 30.3211 325.593 30.6273 324.47 31.3417C321.102 33.281 317.734 36.0367 314.366 39.4048C314.264 39.4048 314.264 39.5069 314.162 39.5069C310.896 42.773 308.242 45.1204 306.099 46.7535C303.445 48.6927 301.506 49.7133 300.179 49.7133C299.362 49.7133 298.954 49.4071 298.954 48.6927C298.954 47.1617 302.22 43.0791 308.752 36.3429C310.181 34.914 311.406 33.5872 312.529 32.4645C314.162 32.3624 316.815 32.2603 319.061 32.2603L319.265 31.4438H313.549C317.428 27.6674 321 24.5034 324.47 21.9518C326.614 20.3188 328.451 19.4002 330.084 19.094V18.8899C327.94 18.7878 326.205 18.8899 324.776 19.2981C323.756 19.6043 322.531 20.2167 320.796 21.1353C317.53 23.0745 313.345 26.5447 308.242 31.6479C305.792 31.6479 303.547 31.9541 302.628 32.0562V32.8727C304.363 32.6686 306.303 32.6686 307.323 32.5665C303.649 36.3429 301.302 38.6904 300.485 39.8131C297.219 43.5895 295.586 46.3452 295.586 48.2844C295.586 50.2237 296.607 51.1422 298.75 51.1422C300.689 51.1422 303.241 50.0195 306.303 47.8762C307.323 47.1617 308.65 46.039 310.079 44.8142C309.263 46.2431 308.854 47.4679 308.854 48.5906C308.854 50.3257 309.773 51.2443 311.712 51.2443C313.549 51.2443 316.305 49.9175 319.877 47.0597C320.796 46.3452 321.612 45.6307 322.327 44.9163C321.51 46.3452 321.102 47.6721 321.102 48.6927C321.102 50.4278 322.123 51.2443 324.062 51.3464C325.797 51.3464 328.349 50.0195 331.921 47.1617C332.839 46.4473 333.758 45.7328 334.677 44.9163C334.166 46.1411 333.962 47.2638 333.962 48.3865C333.962 50.3257 334.881 51.2443 336.616 51.3464C338.759 51.3464 342.127 49.3051 346.924 45.0184C346.006 46.4473 345.495 47.6721 345.495 48.6927C345.495 50.4278 346.414 51.2443 348.353 51.2443C350.088 51.2443 352.844 49.8154 356.314 47.0597C357.233 46.3452 358.151 45.5287 359.07 44.7122C358.356 46.039 357.947 47.2638 357.947 48.4886C357.947 50.3257 358.968 51.3464 361.111 51.3464C362.744 51.3464 365.296 50.1216 368.664 47.6721C369.889 46.7535 371.114 45.8349 372.338 44.8142C372.032 45.7328 371.93 46.5493 371.93 47.4679C371.93 50.1216 373.053 51.4484 375.4 51.4484C378.871 51.4484 383.463 48.4886 389.281 42.5688C393.364 38.3842 395.507 35.0161 395.507 32.3624C395.609 30.4232 394.486 29.7087 392.343 29.7087ZM342.025 47.57C339.27 49.5092 337.636 50.3257 336.922 50.0195C336.616 49.9175 336.514 49.6113 336.514 49.203C336.514 47.57 338.657 44.6101 343.046 40.5275C349.884 33.9954 354.273 30.7293 356.314 30.7293C356.927 30.7293 357.131 30.9335 357.131 31.3417C357.131 32.4645 354.885 35.4243 350.497 40.0172C347.537 43.1812 344.679 45.6308 342.025 47.57ZM388.362 40.1193C381.728 46.8555 377.442 50.1216 375.502 50.1216C374.788 50.1216 374.38 49.7133 374.38 48.9989C374.38 47.4679 376.421 44.7122 380.401 40.5275C386.729 33.9954 391.118 30.7293 393.466 30.7293C394.078 30.7293 394.384 31.0355 394.384 31.5459C394.384 33.1789 392.343 36.0367 388.362 40.1193Z"
          fill="white"/>
    <path d="M248.33 19.2985C247.31 19.6047 246.085 20.2171 244.35 21.1357C241.084 23.0749 236.899 26.5451 231.796 31.6483C229.347 31.6483 227.101 31.9545 226.183 32.0566V32.8731C227.918 32.669 229.857 32.6689 230.877 32.5669C227.203 36.3433 224.856 38.6908 224.039 39.8135C223.835 40.1197 223.631 40.3238 223.325 40.63C220.773 42.8754 218.63 44.8146 216.69 46.2435C213.22 48.9993 210.873 50.122 210.056 49.7137C209.852 49.6117 209.75 49.4075 209.75 49.1013C209.75 48.4889 210.771 46.958 212.812 44.5084C216.384 40.1197 221.181 35.3226 226.999 29.9132C225.06 29.7091 223.427 30.0153 222.1 30.7297C219.446 32.1586 215.874 35.2206 211.485 39.9155C209.036 42.4671 206.79 44.6105 204.851 46.1415C201.891 48.4889 199.85 49.6117 198.625 49.6117C198.115 49.6117 197.809 49.4075 197.809 48.9993C197.809 48.2848 198.727 46.7538 200.666 44.5084C204.035 40.4259 209.036 35.7309 215.568 30.3215C212.914 30.3215 211.077 30.6277 209.954 31.3421C206.484 33.3834 202.912 36.2412 199.34 39.9155C195.971 43.3857 194.236 46.2435 194.236 48.4889C194.236 50.224 195.155 51.1426 197.094 51.1426C198.931 51.1426 201.687 49.8158 205.259 46.958C206.178 46.2435 206.994 45.5291 207.709 44.8146C206.892 46.2435 206.484 47.5704 206.484 48.591C206.484 50.3261 207.505 51.1426 209.444 51.2447C211.179 51.2447 213.935 49.9178 217.507 47.06C218.528 46.2435 219.446 45.427 220.569 44.5084C219.65 46.0394 219.14 47.3662 219.14 48.2848C219.14 50.224 220.161 51.1426 222.304 51.1426C224.243 51.1426 226.795 50.0199 229.857 47.8765C232.102 46.2435 235.879 42.6713 238.838 40.0176H237.308C234.246 42.9775 231.694 45.3249 229.653 46.8559C226.999 48.7951 225.06 49.8158 223.733 49.8158C222.916 49.8158 222.508 49.5096 222.508 48.7951C222.508 47.2642 225.774 43.1816 232.306 36.4453C233.735 35.0164 234.96 33.6896 236.083 32.5669C237.716 32.4648 240.369 32.3628 242.615 32.3628L242.819 31.5462H237.103C240.982 27.7699 244.554 24.6059 248.024 22.0543C250.168 20.4212 252.005 19.5027 253.638 19.1965V18.9923C251.494 18.7882 249.657 18.9923 248.33 19.2985Z"
          fill="white"/>
    <path d="M141.979 19.2978C140.959 19.604 139.734 20.2164 137.999 21.135C134.733 23.0742 130.548 26.5444 125.445 31.6476C122.995 31.6476 120.75 31.9538 119.831 32.0559V32.8724C121.567 32.6683 123.506 32.6682 124.526 32.5662C120.852 36.3426 118.505 38.69 117.688 39.8128C117.484 40.1189 117.28 40.3231 117.076 40.5272C112.891 44.0995 108.911 46.7531 105.032 48.5903C107.788 46.8552 109.523 44.6098 110.339 41.9561C110.748 40.7313 110.952 38.6901 110.952 35.9343C110.952 34.1992 111.258 33.0765 111.972 32.3621C114.014 30.8311 115.749 29.7084 117.28 28.9939C120.036 27.463 121.362 26.2382 121.362 25.3196C121.362 24.9114 120.852 24.7072 119.934 24.7072C118.505 24.7072 116.872 25.5237 115.034 27.0547C112.993 29.1981 111.564 30.8311 110.646 31.9538C109.421 33.3827 106.563 35.9343 102.276 39.7107C101.46 39.7107 100.133 40.119 98.6021 41.4458C97.4794 42.3644 96.5608 43.1809 95.7443 43.9974C95.2339 44.5077 94.8257 45.018 94.4174 45.5284C94.1112 45.8346 93.805 46.0387 93.4989 46.2428C90.4369 48.6924 88.2936 49.9171 87.0688 49.9171C86.5585 49.9171 86.3543 49.713 86.3543 49.3048C86.3543 48.6924 87.2729 47.1614 89.2121 44.916C92.4782 40.9355 97.2752 36.2405 103.501 30.627C102.072 30.5249 100.745 30.729 99.5207 31.1373C98.2959 31.5455 96.4587 32.8724 93.805 35.0157C95.2339 33.5868 95.9484 32.4641 95.9484 31.4435C95.9484 30.3208 95.1319 29.8105 93.3968 29.8105C91.2534 29.8105 88.5998 30.627 85.3337 32.1579C81.8635 33.893 79.0057 36.0364 76.6582 38.4859C75.4335 39.7107 74.5149 40.9355 73.8004 42.0582C70.9426 44.5077 68.9013 46.1407 67.8807 46.8552C65.0229 48.8965 62.9816 49.9171 61.8589 49.9171C61.3486 49.9171 61.1444 49.713 61.1444 49.3048C61.1444 47.6717 64.5125 43.385 71.3509 36.4446C79.9243 27.565 87.2729 20.9308 93.1926 16.44C95.4381 14.7049 97.2752 13.6843 98.7041 13.3781L98.8062 13.276C96.5608 13.1739 94.6216 13.3781 93.2947 13.7863C91.8658 14.1946 90.4369 14.909 89.1101 15.8276C83.7007 19.5019 76.8623 25.5238 68.6972 33.893C64.1043 38.588 61.0424 42.1602 59.6135 44.6098C58.7969 45.9366 58.3887 47.1614 58.3887 48.2841C58.3887 50.2233 59.3073 51.1419 61.2465 51.1419C62.6754 51.1419 64.9208 50.0192 68.1869 47.8758C69.4116 47.0593 70.8405 45.9366 72.3715 44.6098C71.8612 45.8346 71.555 47.0593 71.555 48.2841C71.555 50.1213 72.4736 51.0398 74.2087 51.1419C76.2499 51.244 79.6181 49.2027 84.4151 45.018C83.5986 46.2428 83.1903 47.4676 83.1903 48.4882C83.1903 50.2233 84.1089 51.1419 86.0481 51.1419C87.6812 51.1419 90.1307 49.9171 93.3968 47.4676C93.2947 47.7738 93.2947 48.08 93.2947 48.3862C93.1926 50.1213 94.3154 51.0399 96.5608 51.244C99.3165 51.4481 102.276 50.8357 105.338 49.5089C108.502 48.182 111.462 46.3449 114.32 44.0995C113.197 45.8346 112.585 47.2635 112.585 48.3862C112.585 50.3254 113.606 51.244 115.749 51.244C117.688 51.244 120.24 50.1213 123.302 47.9779C125.547 46.3449 129.323 42.7726 132.283 40.119H130.752C127.69 43.0788 125.139 45.4263 123.098 46.9573C120.444 48.8965 118.505 49.9171 117.178 49.9171C116.361 49.9171 115.953 49.6109 115.953 48.8965C115.953 47.3655 119.219 43.283 125.751 36.5467C127.18 35.1178 128.405 33.791 129.528 32.6682C131.161 32.5662 133.814 32.4641 136.06 32.4641L136.264 31.6476H130.548C134.427 27.8712 137.999 24.7072 141.469 22.1556C143.612 20.5226 145.45 19.604 147.083 19.2978V19.0937C145.143 18.7875 143.306 18.9916 141.979 19.2978ZM79.6181 47.6717C76.9644 49.611 75.3314 50.4275 74.6169 50.1213C74.3107 50.0192 74.2087 49.713 74.2087 49.4068C74.2087 47.6717 76.352 44.8139 80.6387 40.7313C87.477 34.1992 91.9679 30.9332 94.2133 30.9332C94.8257 30.9332 95.0298 31.2394 95.0298 31.7497C95.0298 32.6683 92.6823 35.5261 87.9874 40.3231C85.1295 43.1809 82.2718 45.6304 79.6181 47.6717ZM96.0505 49.8151C94.8257 49.8151 94.2133 49.2027 94.3154 48.08C94.3154 47.2635 94.9278 46.447 96.0505 45.6304C97.6835 44.6098 98.9083 43.8953 99.8268 43.385C101.562 42.2623 102.481 41.2417 102.685 40.3231C106.053 37.5673 108.604 35.2199 110.237 33.4848C109.217 37.4653 107.073 41.3437 104.011 44.916C101.154 48.182 98.5 49.8151 96.0505 49.8151Z"
          fill="white"/>
    <path d="M339.371 4.19335C338.249 1.84587 335.697 0.621094 331.819 0.621094C326.92 0.621094 322.021 2.56032 317.019 6.33671C312.018 10.1131 305.894 16.339 298.75 25.5248C292.524 33.4858 287.012 39.4056 282.215 43.182C276.806 47.4687 271.703 49.7141 267.008 49.7141C264.15 49.7141 261.803 48.9996 259.965 47.4687C258.128 45.9377 257.21 43.7943 257.21 40.8345C257.21 34.9147 261.292 28.0764 269.457 20.3195C277.827 12.4606 284.767 8.48007 290.483 8.48007C292.014 8.48007 293.34 8.78626 294.361 9.50071C295.688 10.4193 296.402 11.8482 296.402 13.7874C296.402 15.4204 295.994 16.9514 295.178 18.6865C293.443 22.4629 289.768 26.8517 284.257 31.8528C280.684 35.0168 278.031 37.2622 276.092 38.5891C272.826 40.7324 269.866 41.8551 267.212 41.9572C265.783 41.9572 264.558 41.5489 263.946 40.2221H263.334C263.844 41.753 265.171 42.7737 267.314 42.7737C273.132 42.7737 279.256 39.9159 285.584 34.0982C290.687 29.4032 294.361 24.5042 296.504 19.1968C297.117 17.6659 297.525 16.0328 297.525 14.5019C297.525 11.9503 296.607 10.1131 294.769 8.88832C293.443 7.96974 291.707 7.56146 289.36 7.56146C286.196 7.56146 282.726 8.37798 278.949 10.1131C274.765 11.9502 270.886 14.6039 267.212 18.0741C259.659 25.3207 255.883 32.6693 255.883 40.2221C255.883 43.7943 257.006 46.5501 259.149 48.2852C261.19 49.9182 263.946 50.8368 267.416 50.8368C272.826 50.8368 278.541 48.8976 284.563 45.0191C291.095 40.8345 297.423 34.8127 303.343 26.9537C310.896 16.9514 315.999 11.0317 318.652 8.27593C323.143 3.78509 327.328 1.53967 331.308 1.53967C334.064 1.53967 336.003 2.66237 337.126 5.00985C337.534 5.92843 337.943 6.43878 338.351 6.43878C338.861 6.43878 339.167 6.13257 339.269 5.62224C339.576 5.00986 339.576 4.60161 339.371 4.19335Z"
          fill="white"/>
</svg>
