<svg width="12" height="12" viewBox="0 0 12 12" fill="none" xmlns="http://www.w3.org/2000/svg">
<mask id="mask0_291_6001" style="mask-type:luminance" maskUnits="userSpaceOnUse" x="0" y="0" width="12" height="12">
<path fill-rule="evenodd" clip-rule="evenodd" d="M0 0H12V12H0V0Z" fill="white"/>
</mask>
<g mask="url(#mask0_291_6001)">
<path fill-rule="evenodd" clip-rule="evenodd" d="M4.94609 6.60945L1.6275 9.9282V8.27898C1.6275 8.10586 1.48734 7.96523 1.31375 7.96523C1.14031 7.96523 1 8.1057 1 8.27898V10.6855C1 10.7263 1.00828 10.767 1.02422 10.8054C1.05594 10.8823 1.11703 10.9432 1.19391 10.9752C1.23219 10.991 1.27297 10.9993 1.31375 10.9993H3.72047C3.89375 10.9993 4.03422 10.859 4.03422 10.6855C4.03422 10.5121 3.89391 10.3718 3.72047 10.3718H2.07109L5.38953 7.05305C5.51203 6.93055 5.51203 6.73195 5.38953 6.60945C5.26703 6.48695 5.06859 6.48695 4.94609 6.60945Z" fill="#1D1D1B" stroke="#1D1D1B" stroke-width="0.3"/>
<path fill-rule="evenodd" clip-rule="evenodd" d="M10.9757 1.19391C10.944 1.11719 10.8829 1.05609 10.8061 1.02406C10.7678 1.00828 10.727 1 10.6862 1H8.27949C8.10621 1 7.96574 1.14031 7.96574 1.31375C7.96574 1.48719 8.10605 1.6275 8.27949 1.6275H9.92887L6.61043 4.94625C6.48793 5.06875 6.48793 5.26734 6.61043 5.38984C6.67168 5.45109 6.75199 5.48187 6.8323 5.48187C6.91262 5.48187 6.99277 5.45109 7.05402 5.38984L10.3725 2.07109V3.72031C10.3725 3.89344 10.5126 4.03406 10.6862 4.03406C10.8595 4.03406 11 3.89359 11 3.72031V1.31375C11 1.27297 10.9917 1.23219 10.9757 1.19391Z" fill="#1D1D1B" stroke="#1D1D1B" stroke-width="0.3"/>
</g>
</svg>
