<svg width="12" height="12" viewBox="0 0 12 12" fill="none" xmlns="http://www.w3.org/2000/svg">
    <path d="M11.5 1.84615H9.00024V1.38462C8.99979 1.01752 8.84161 0.665579 8.56041 0.406003C8.2792 0.146427 7.89793 0.000415031 7.50024 0H4.50024C4.10256 0.000415031 3.72129 0.146427 3.44008 0.406003C3.15887 0.665579 3.00069 1.01752 3.00024 1.38462V1.84615H0.5C0.367392 1.84615 0.240215 1.89478 0.146447 1.98134C0.0526785 2.06789 0 2.18528 0 2.30769C0 2.4301 0.0526785 2.54749 0.146447 2.63405C0.240215 2.7206 0.367392 2.76923 0.5 2.76923H1V11.0769C1.0003 11.3217 1.10576 11.5563 1.29323 11.7293C1.4807 11.9024 1.73488 11.9997 2 12H10C10.2651 11.9997 10.5193 11.9024 10.7068 11.7293C10.8942 11.5563 10.9997 11.3217 11 11.0769V2.76923H11.5C11.6326 2.76923 11.7598 2.7206 11.8536 2.63405C11.9473 2.54749 12 2.4301 12 2.30769C12 2.18528 11.9473 2.06789 11.8536 1.98134C11.7598 1.89478 11.6326 1.84615 11.5 1.84615ZM5.00024 8.76923C5.00024 8.89164 4.94757 9.00903 4.8538 9.09559C4.76003 9.18214 4.63285 9.23077 4.50024 9.23077C4.36764 9.23077 4.24046 9.18214 4.14669 9.09559C4.05292 9.00903 4.00024 8.89164 4.00024 8.76923V5.07692C4.00024 4.95452 4.05292 4.83712 4.14669 4.75057C4.24046 4.66401 4.36764 4.61539 4.50024 4.61539C4.63285 4.61539 4.76003 4.66401 4.8538 4.75057C4.94757 4.83712 5.00024 4.95452 5.00024 5.07692V8.76923ZM8.00024 8.76923C8.00024 8.89164 7.94757 9.00903 7.8538 9.09559C7.76003 9.18214 7.63285 9.23077 7.50024 9.23077C7.36764 9.23077 7.24046 9.18214 7.14669 9.09559C7.05292 9.00903 7.00024 8.89164 7.00024 8.76923V5.07692C7.00024 4.95452 7.05292 4.83712 7.14669 4.75057C7.24046 4.66401 7.36764 4.61539 7.50024 4.61539C7.63285 4.61539 7.76003 4.66401 7.8538 4.75057C7.94757 4.83712 8.00024 4.95452 8.00024 5.07692V8.76923ZM8.00024 1.84615H4.00024V1.38462C4.0004 1.26225 4.05312 1.14494 4.14686 1.05841C4.24059 0.971888 4.36768 0.923217 4.50024 0.923077H7.50024C7.63281 0.923217 7.75989 0.971888 7.85363 1.05841C7.94737 1.14494 8.00009 1.26225 8.00024 1.38462V1.84615Z"
          fill="black"/>
</svg>
